<svg width="36" height="35" viewBox="0 0 36 35" fill="none" xmlns="http://www.w3.org/2000/svg">
<path d="M4.875 13.1257V3.64648H11.4375M4.875 13.1257V29.1673C4.875 29.9409 5.18229 30.6827 5.72927 31.2297C6.27625 31.7767 7.01812 32.084 7.79167 32.084H28.2083C28.9819 32.084 29.7237 31.7767 30.2707 31.2297C30.8177 30.6827 31.125 29.9409 31.125 29.1673V13.1257M4.875 13.1257H11.4375M31.125 13.1257V3.64648H24.5625M31.125 13.1257H24.5625M18 3.64648V13.1257M18 3.64648H11.4375M18 3.64648H24.5625M18 13.1257H11.4375M18 13.1257H24.5625M11.4375 3.64648V13.1257M24.5625 3.64648V13.1257" stroke="#171717" stroke-width="2.91667" stroke-linecap="round" stroke-linejoin="round"/>
<path d="M13.625 32.0833V21.875H22.375V32.0833" stroke="#171717" stroke-width="2.91667" stroke-linecap="round" stroke-linejoin="round"/>
</svg>
