<svg width="36" height="35" viewBox="0 0 36 35" fill="none" xmlns="http://www.w3.org/2000/svg">
<g clip-path="url(#clip0_5803_5243)">
<g clip-path="url(#clip1_5803_5243)">
<circle cx="18" cy="17.5" r="16.0417" stroke="#171717" stroke-width="2.91667"/>
<path d="M18.0002 18.5931C18.7049 18.5931 19.2762 18.0218 19.2762 17.3171C19.2762 16.6123 18.7049 16.041 18.0002 16.041C17.2954 16.041 16.7241 16.6123 16.7241 17.3171C16.7241 18.0218 17.2954 18.5931 18.0002 18.5931Z" stroke="#171717" stroke-width="2.55208" stroke-linecap="round" stroke-linejoin="round"/>
<path d="M26.9323 18.5931C27.637 18.5931 28.2083 18.0218 28.2083 17.3171C28.2083 16.6123 27.637 16.041 26.9323 16.041C26.2276 16.041 25.6562 16.6123 25.6562 17.3171C25.6562 18.0218 26.2276 18.5931 26.9323 18.5931Z" stroke="#171717" stroke-width="2.55208" stroke-linecap="round" stroke-linejoin="round"/>
<path d="M9.06755 18.5931C9.77228 18.5931 10.3436 18.0218 10.3436 17.3171C10.3436 16.6123 9.77228 16.041 9.06755 16.041C8.36281 16.041 7.7915 16.6123 7.7915 17.3171C7.7915 18.0218 8.36281 18.5931 9.06755 18.5931Z" stroke="#171717" stroke-width="2.55208" stroke-linecap="round" stroke-linejoin="round"/>
</g>
</g>
<defs>
<clipPath id="clip0_5803_5243">
<rect width="35" height="35" fill="white" transform="translate(0.5)"/>
</clipPath>
<clipPath id="clip1_5803_5243">
<rect width="35" height="35" fill="white" transform="translate(0.5)"/>
</clipPath>
</defs>
</svg>
